<svg width="22" height="24" viewBox="0 0 22 24" fill="none" xmlns="http://www.w3.org/2000/svg">
<path d="M19.275 18.7655V17.1086H6.53189L7.34528 15.4517L19.8173 14.0961L21.9863 5.05838H5.3118L4.36285 0.539551H0.295898V2.04583H3.27833L6.12519 14.6986L4.36285 18.6149V20.8743C4.36285 22.0793 5.3118 23.1337 6.39632 23.1337C7.48084 23.1337 8.4298 22.0793 8.4298 20.8743C8.4298 19.6693 7.48084 18.6149 6.39632 18.6149H16.5637V20.8743C16.5637 22.0793 17.5127 23.1337 18.5972 23.1337C19.6817 23.1337 20.6306 22.0793 20.6306 20.8743C20.6306 19.8199 20.0884 19.0668 19.275 18.7655ZM5.7185 6.56466H20.224L18.7327 12.5898L7.34528 13.9454L5.7185 6.56466Z" fill="white"/>
</svg>
