<svg width="27" height="27" viewBox="0 0 27 27" fill="none" xmlns="http://www.w3.org/2000/svg">
<path fill-rule="evenodd" clip-rule="evenodd" d="M9.6 4.5H7.2V6.9H3.6C2.64522 6.9 1.72955 7.27928 1.05442 7.95442C0.379285 8.62955 0 9.54522 0 10.5V17.7C0 18.6548 0.379285 19.5705 1.05442 20.2456C1.72955 20.9207 2.64522 21.3 3.6 21.3H7.2V23.7H9.6V4.5ZM7.2 9.3V18.9H3.6C3.28174 18.9 2.97652 18.7736 2.75147 18.5485C2.52643 18.3235 2.4 18.0183 2.4 17.7V10.5C2.4 10.1817 2.52643 9.87652 2.75147 9.65147C2.97652 9.42643 3.28174 9.3 3.6 9.3H7.2Z" fill="white"/>
<path d="M20.4 18.9H12V21.3H20.4C21.3548 21.3 22.2705 20.9207 22.9456 20.2456C23.6207 19.5705 24 18.6548 24 17.7V10.5C24 9.54524 23.6207 8.62957 22.9456 7.95444C22.2705 7.27931 21.3548 6.90002 20.4 6.90002H12V9.30002H20.4C20.7183 9.30002 21.0235 9.42645 21.2485 9.6515C21.4736 9.87654 21.6 10.1818 21.6 10.5V17.7C21.6 18.0183 21.4736 18.3235 21.2485 18.5486C21.0235 18.7736 20.7183 18.9 20.4 18.9Z" fill="white"/>
</svg>
