<svg width="11" height="22" viewBox="0 0 11 22" fill="none" xmlns="http://www.w3.org/2000/svg">
<path d="M1.56098 21.9972C1.1969 21.9979 0.844055 21.8703 0.563708 21.6365C0.405923 21.5049 0.275496 21.3432 0.179895 21.1608C0.0842939 20.9784 0.0253982 20.7788 0.00658111 20.5734C-0.012236 20.3681 0.00939553 20.161 0.0702362 19.964C0.131077 19.7671 0.22993 19.5842 0.361137 19.4257L7.34205 11.0215L0.610457 2.6016C0.48102 2.44122 0.38436 2.25668 0.326032 2.05859C0.267704 1.86049 0.248859 1.65275 0.27058 1.44731C0.292301 1.24186 0.354158 1.04276 0.452598 0.861445C0.551038 0.680133 0.684119 0.520184 0.844192 0.390792C1.00542 0.248051 1.19422 0.140384 1.39876 0.0745472C1.6033 0.00871038 1.81915 -0.0138739 2.03278 0.0082105C2.2464 0.0302949 2.45318 0.0965718 2.64014 0.202882C2.82711 0.309192 2.99021 0.453239 3.11922 0.625985L10.6455 10.0337C10.8747 10.3143 11 10.6662 11 11.0293C11 11.3925 10.8747 11.7444 10.6455 12.025L2.85432 21.4327C2.698 21.6224 2.49943 21.7724 2.27472 21.8705C2.05 21.9686 1.80548 22.012 1.56098 21.9972Z" fill="#101F26"/>
</svg>
