<svg width="27" height="27" viewBox="0 0 27 27" fill="none" xmlns="http://www.w3.org/2000/svg">
<path d="M16.875 13.5H19.125C19.125 10.395 16.605 7.875 13.5 7.875V10.125C15.3675 10.125 16.875 11.6325 16.875 13.5ZM21.375 13.5H23.625C23.625 10.8147 22.5583 8.23935 20.6595 6.34054C18.7606 4.44174 16.1853 3.375 13.5 3.375V5.625C17.8538 5.625 21.375 9.14625 21.375 13.5ZM22.5 17.4375C21.0938 17.4375 19.7437 17.2125 18.4838 16.7963C18.3713 16.7625 18.2475 16.74 18.135 16.74C17.8425 16.74 17.5612 16.8525 17.3363 17.0662L14.8612 19.5413C11.6676 17.917 9.07175 15.3212 7.4475 12.1275L9.9225 9.64125C10.0715 9.49988 10.1771 9.31896 10.2269 9.1197C10.2767 8.92044 10.2687 8.7111 10.2037 8.51625C9.77698 7.22031 9.56049 5.8644 9.5625 4.5C9.5625 3.88125 9.05625 3.375 8.4375 3.375H4.5C3.88125 3.375 3.375 3.88125 3.375 4.5C3.375 15.0638 11.9362 23.625 22.5 23.625C23.1187 23.625 23.625 23.1187 23.625 22.5V18.5625C23.625 17.9438 23.1187 17.4375 22.5 17.4375ZM5.65875 5.625H7.34625C7.425 6.615 7.59375 7.59375 7.8525 8.5275L6.5025 9.88875C6.0525 8.5275 5.76 7.11 5.65875 5.625ZM21.375 21.3412C19.89 21.24 18.45 20.9475 17.1 20.4862L18.45 19.1363C19.4062 19.4062 20.385 19.575 21.375 19.6425V21.3412Z" fill="white"/>
</svg>
