<svg width="11" height="22" viewBox="0 0 11 22" fill="none" xmlns="http://www.w3.org/2000/svg">
<path d="M9.43902 21.9972C9.8031 21.9979 10.1559 21.8703 10.4363 21.6365C10.5941 21.5049 10.7245 21.3432 10.8201 21.1608C10.9157 20.9784 10.9746 20.7788 10.9934 20.5734C11.0122 20.3681 10.9906 20.161 10.9298 19.964C10.8689 19.7671 10.7701 19.5842 10.6389 19.4257L3.65795 11.0215L10.3895 2.6016C10.519 2.44122 10.6156 2.25668 10.674 2.05859C10.7323 1.86049 10.7511 1.65275 10.7294 1.44731C10.7077 1.24186 10.6458 1.04276 10.5474 0.861445C10.449 0.680133 10.3159 0.520184 10.1558 0.390792C9.99458 0.248051 9.80578 0.140384 9.60124 0.0745472C9.3967 0.00871038 9.18085 -0.0138739 8.96722 0.0082105C8.7536 0.0302949 8.54682 0.0965718 8.35986 0.202882C8.17289 0.309192 8.00979 0.453239 7.88078 0.625985L0.354481 10.0337C0.125292 10.3143 0 10.6662 0 11.0293C0 11.3925 0.125292 11.7444 0.354481 12.025L8.14568 21.4327C8.302 21.6224 8.50057 21.7724 8.72528 21.8705C8.95 21.9686 9.19452 22.012 9.43902 21.9972Z" fill="#101F26"/>
</svg>
