<svg width="17" height="17" viewBox="0 0 17 17" fill="none" xmlns="http://www.w3.org/2000/svg">
<path d="M15.9242 13.2718L13.232 10.5796L11.1612 9.72403C11.8507 8.74349 12.2201 7.5737 12.2188 6.375C12.2188 3.15274 9.59726 0.53125 6.375 0.53125C3.15274 0.53125 0.53125 3.15274 0.53125 6.375C0.53125 9.59726 3.15274 12.2188 6.375 12.2188C7.58414 12.2201 8.76359 11.8443 9.74907 11.1437L10.6024 13.209L13.2945 15.9013C13.4672 16.074 13.6722 16.211 13.8978 16.3044C14.1233 16.3979 14.3651 16.446 14.6093 16.446C14.8535 16.446 15.0953 16.3979 15.3209 16.3045C15.5465 16.211 15.7515 16.0741 15.9241 15.9014C16.0968 15.7288 16.2338 15.5238 16.3272 15.2982C16.4207 15.0726 16.4688 14.8308 16.4688 14.5866C16.4688 14.3425 16.4207 14.1007 16.3273 13.8751C16.2338 13.6495 16.0969 13.4445 15.9242 13.2718ZM1.59375 6.375C1.59375 3.73867 3.73867 1.59375 6.375 1.59375C9.01133 1.59375 11.1562 3.73867 11.1562 6.375C11.1562 9.01133 9.01133 11.1562 6.375 11.1562C3.73867 11.1562 1.59375 9.01133 1.59375 6.375ZM15.1729 15.1501C15.0233 15.2993 14.8207 15.3831 14.6094 15.3831C14.3981 15.3831 14.1954 15.2993 14.0459 15.1501L11.5035 12.6076L10.7101 10.6873L12.6305 11.4807L15.1729 14.0231C15.3221 14.1727 15.4059 14.3753 15.4059 14.5866C15.4059 14.7979 15.3221 15.0005 15.1729 15.1501Z" fill="#121E08"/>
</svg>
